<svg width="782" height="53" viewBox="0 0 782 53" fill="none" xmlns="http://www.w3.org/2000/svg">
<path d="M89.03 36.091C88.3973 36.091 87.8253 35.9827 87.314 35.766C86.8113 35.5493 86.4127 35.2373 86.118 34.83C85.8233 34.4227 85.6717 33.9417 85.663 33.387H87.613C87.639 33.7597 87.769 34.0543 88.003 34.271C88.2457 34.4877 88.575 34.596 88.991 34.596C89.4157 34.596 89.7493 34.4963 89.992 34.297C90.2347 34.089 90.356 33.8203 90.356 33.491C90.356 33.2223 90.2737 33.0013 90.109 32.828C89.9443 32.6547 89.7363 32.5203 89.485 32.425C89.2423 32.321 88.9043 32.2083 88.471 32.087C87.8817 31.9137 87.4007 31.7447 87.028 31.58C86.664 31.4067 86.3477 31.151 86.079 30.813C85.819 30.4663 85.689 30.007 85.689 29.435C85.689 28.8977 85.8233 28.4297 86.092 28.031C86.3607 27.6323 86.7377 27.329 87.223 27.121C87.7083 26.9043 88.263 26.796 88.887 26.796C89.823 26.796 90.5813 27.0257 91.162 27.485C91.7513 27.9357 92.0763 28.5683 92.137 29.383H90.135C90.1177 29.071 89.9833 28.8153 89.732 28.616C89.4893 28.408 89.1643 28.304 88.757 28.304C88.4017 28.304 88.1157 28.395 87.899 28.577C87.691 28.759 87.587 29.0233 87.587 29.37C87.587 29.6127 87.665 29.8163 87.821 29.981C87.9857 30.137 88.185 30.267 88.419 30.371C88.6617 30.4663 88.9997 30.579 89.433 30.709C90.0223 30.8823 90.5033 31.0557 90.876 31.229C91.2487 31.4023 91.5693 31.6623 91.838 32.009C92.1067 32.3557 92.241 32.8107 92.241 33.374C92.241 33.8593 92.1153 34.31 91.864 34.726C91.6127 35.142 91.2443 35.4757 90.759 35.727C90.2737 35.9697 89.6973 36.091 89.03 36.091ZM97.6409 26.926C98.5942 26.926 99.4305 27.1123 100.15 27.485C100.878 27.8577 101.437 28.3907 101.827 29.084C102.226 29.7687 102.425 30.566 102.425 31.476C102.425 32.386 102.226 33.1833 101.827 33.868C101.437 34.544 100.878 35.0683 100.15 35.441C99.4305 35.8137 98.5942 36 97.6409 36H94.4689V26.926H97.6409ZM97.5759 34.453C98.5292 34.453 99.2659 34.193 99.7859 33.673C100.306 33.153 100.566 32.4207 100.566 31.476C100.566 30.5313 100.306 29.7947 99.7859 29.266C99.2659 28.7287 98.5292 28.46 97.5759 28.46H96.2889V34.453H97.5759ZM112.198 36H110.378L106.257 29.773V36H104.437V26.913H106.257L110.378 33.153V26.913H112.198V36ZM124.712 29.656C124.504 29.2747 124.218 28.9843 123.854 28.785C123.49 28.5857 123.066 28.486 122.58 28.486C122.043 28.486 121.566 28.6073 121.15 28.85C120.734 29.0927 120.409 29.4393 120.175 29.89C119.941 30.3407 119.824 30.8607 119.824 31.45C119.824 32.0567 119.941 32.5853 120.175 33.036C120.418 33.4867 120.752 33.8333 121.176 34.076C121.601 34.3187 122.095 34.44 122.658 34.44C123.352 34.44 123.919 34.258 124.361 33.894C124.803 33.5213 125.094 33.0057 125.232 32.347H122.112V30.956H127.026V32.542C126.905 33.1747 126.645 33.7597 126.246 34.297C125.848 34.8343 125.332 35.2677 124.699 35.597C124.075 35.9177 123.373 36.078 122.593 36.078C121.718 36.078 120.925 35.883 120.214 35.493C119.512 35.0943 118.958 34.544 118.55 33.842C118.152 33.14 117.952 32.3427 117.952 31.45C117.952 30.5573 118.152 29.76 118.55 29.058C118.958 28.3473 119.512 27.797 120.214 27.407C120.925 27.0083 121.714 26.809 122.58 26.809C123.603 26.809 124.491 27.0603 125.245 27.563C125.999 28.057 126.519 28.7547 126.805 29.656H124.712ZM135.822 28.798V36H133.989V35.09C133.755 35.402 133.447 35.649 133.066 35.831C132.693 36.0043 132.286 36.091 131.844 36.091C131.281 36.091 130.782 35.974 130.349 35.74C129.916 35.4973 129.573 35.1463 129.322 34.687C129.079 34.219 128.958 33.6643 128.958 33.023V28.798H130.778V32.763C130.778 33.335 130.921 33.777 131.207 34.089C131.493 34.3923 131.883 34.544 132.377 34.544C132.88 34.544 133.274 34.3923 133.56 34.089C133.846 33.777 133.989 33.335 133.989 32.763V28.798H135.822ZM142.259 28.694C143.117 28.694 143.81 28.967 144.339 29.513C144.867 30.0503 145.132 30.8043 145.132 31.775V36H143.312V32.022C143.312 31.45 143.169 31.0123 142.883 30.709C142.597 30.397 142.207 30.241 141.713 30.241C141.21 30.241 140.811 30.397 140.517 30.709C140.231 31.0123 140.088 31.45 140.088 32.022V36H138.268V28.798H140.088V29.695C140.33 29.383 140.638 29.1403 141.011 28.967C141.392 28.785 141.808 28.694 142.259 28.694ZM154.311 28.798V36H152.478V35.09C152.244 35.402 151.937 35.649 151.555 35.831C151.183 36.0043 150.775 36.091 150.333 36.091C149.77 36.091 149.272 35.974 148.838 35.74C148.405 35.4973 148.063 35.1463 147.811 34.687C147.569 34.219 147.447 33.6643 147.447 33.023V28.798H149.267V32.763C149.267 33.335 149.41 33.777 149.696 34.089C149.982 34.3923 150.372 34.544 150.866 34.544C151.369 34.544 151.763 34.3923 152.049 34.089C152.335 33.777 152.478 33.335 152.478 32.763V28.798H154.311ZM160.748 28.694C161.606 28.694 162.299 28.967 162.828 29.513C163.357 30.0503 163.621 30.8043 163.621 31.775V36H161.801V32.022C161.801 31.45 161.658 31.0123 161.372 30.709C161.086 30.397 160.696 30.241 160.202 30.241C159.699 30.241 159.301 30.397 159.006 30.709C158.72 31.0123 158.577 31.45 158.577 32.022V36H156.757V28.798H158.577V29.695C158.82 29.383 159.127 29.1403 159.5 28.967C159.881 28.785 160.297 28.694 160.748 28.694ZM168.823 28.681C169.36 28.681 169.833 28.7893 170.24 29.006C170.647 29.214 170.968 29.487 171.202 29.825V28.798H173.035V36.052C173.035 36.7193 172.901 37.313 172.632 37.833C172.363 38.3617 171.96 38.7777 171.423 39.081C170.886 39.393 170.236 39.549 169.473 39.549C168.45 39.549 167.61 39.3107 166.951 38.834C166.301 38.3573 165.933 37.7073 165.846 36.884H167.653C167.748 37.2133 167.952 37.4733 168.264 37.664C168.585 37.8633 168.97 37.963 169.421 37.963C169.95 37.963 170.379 37.8027 170.708 37.482C171.037 37.17 171.202 36.6933 171.202 36.052V34.934C170.968 35.272 170.643 35.5537 170.227 35.779C169.82 36.0043 169.352 36.117 168.823 36.117C168.216 36.117 167.662 35.961 167.159 35.649C166.656 35.337 166.258 34.8993 165.963 34.336C165.677 33.764 165.534 33.1097 165.534 32.373C165.534 31.645 165.677 30.9993 165.963 30.436C166.258 29.8727 166.652 29.4393 167.146 29.136C167.649 28.8327 168.208 28.681 168.823 28.681ZM171.202 32.399C171.202 31.957 171.115 31.58 170.942 31.268C170.769 30.9473 170.535 30.7047 170.24 30.54C169.945 30.3667 169.629 30.28 169.291 30.28C168.953 30.28 168.641 30.3623 168.355 30.527C168.069 30.6917 167.835 30.9343 167.653 31.255C167.48 31.567 167.393 31.9397 167.393 32.373C167.393 32.8063 167.48 33.1877 167.653 33.517C167.835 33.8377 168.069 34.0847 168.355 34.258C168.65 34.4313 168.962 34.518 169.291 34.518C169.629 34.518 169.945 34.4357 170.24 34.271C170.535 34.0977 170.769 33.855 170.942 33.543C171.115 33.2223 171.202 32.841 171.202 32.399ZM184.358 31.346C184.869 31.4413 185.29 31.697 185.619 32.113C185.948 32.529 186.113 33.0057 186.113 33.543C186.113 34.0283 185.992 34.4573 185.749 34.83C185.515 35.194 185.173 35.48 184.722 35.688C184.271 35.896 183.738 36 183.123 36H179.21V26.926H182.954C183.569 26.926 184.098 27.0257 184.54 27.225C184.991 27.4243 185.329 27.7017 185.554 28.057C185.788 28.4123 185.905 28.8153 185.905 29.266C185.905 29.7947 185.762 30.2367 185.476 30.592C185.199 30.9473 184.826 31.1987 184.358 31.346ZM181.03 30.67H182.694C183.127 30.67 183.461 30.5747 183.695 30.384C183.929 30.1847 184.046 29.903 184.046 29.539C184.046 29.175 183.929 28.8933 183.695 28.694C183.461 28.4947 183.127 28.395 182.694 28.395H181.03V30.67ZM182.863 34.518C183.305 34.518 183.647 34.414 183.89 34.206C184.141 33.998 184.267 33.7033 184.267 33.322C184.267 32.932 184.137 32.6287 183.877 32.412C183.617 32.1867 183.266 32.074 182.824 32.074H181.03V34.518H182.863ZM187.746 32.373C187.746 31.645 187.889 30.9993 188.175 30.436C188.469 29.8727 188.864 29.4393 189.358 29.136C189.86 28.8327 190.419 28.681 191.035 28.681C191.572 28.681 192.04 28.7893 192.439 29.006C192.846 29.2227 193.171 29.4957 193.414 29.825V28.798H195.247V36H193.414V34.947C193.18 35.285 192.855 35.5667 192.439 35.792C192.031 36.0087 191.559 36.117 191.022 36.117C190.415 36.117 189.86 35.961 189.358 35.649C188.864 35.337 188.469 34.8993 188.175 34.336C187.889 33.764 187.746 33.1097 187.746 32.373ZM193.414 32.399C193.414 31.957 193.327 31.58 193.154 31.268C192.98 30.9473 192.746 30.7047 192.452 30.54C192.157 30.3667 191.841 30.28 191.503 30.28C191.165 30.28 190.853 30.3623 190.567 30.527C190.281 30.6917 190.047 30.9343 189.865 31.255C189.691 31.567 189.605 31.9397 189.605 32.373C189.605 32.8063 189.691 33.1877 189.865 33.517C190.047 33.8377 190.281 34.0847 190.567 34.258C190.861 34.4313 191.173 34.518 191.503 34.518C191.841 34.518 192.157 34.4357 192.452 34.271C192.746 34.0977 192.98 33.855 193.154 33.543C193.327 33.2223 193.414 32.841 193.414 32.399ZM199.793 30.293V33.777C199.793 34.0197 199.849 34.1973 199.962 34.31C200.083 34.414 200.283 34.466 200.56 34.466H201.405V36H200.261C198.727 36 197.96 35.2547 197.96 33.764V30.293H197.102V28.798H197.96V27.017H199.793V28.798H201.405V30.293H199.793ZM210.163 28.798V36H208.33V35.09C208.096 35.402 207.789 35.649 207.407 35.831C207.035 36.0043 206.627 36.091 206.185 36.091C205.622 36.091 205.124 35.974 204.69 35.74C204.257 35.4973 203.915 35.1463 203.663 34.687C203.421 34.219 203.299 33.6643 203.299 33.023V28.798H205.119V32.763C205.119 33.335 205.262 33.777 205.548 34.089C205.834 34.3923 206.224 34.544 206.718 34.544C207.221 34.544 207.615 34.3923 207.901 34.089C208.187 33.777 208.33 33.335 208.33 32.763V28.798H210.163ZM216.721 33.946C217.553 33.2527 218.216 32.6763 218.71 32.217C219.204 31.749 219.615 31.2637 219.945 30.761C220.274 30.2583 220.439 29.7643 220.439 29.279C220.439 28.837 220.335 28.4903 220.127 28.239C219.919 27.9877 219.598 27.862 219.165 27.862C218.731 27.862 218.398 28.0093 218.164 28.304C217.93 28.59 217.808 28.9843 217.8 29.487H216.032C216.066 28.447 216.374 27.6583 216.955 27.121C217.544 26.5837 218.289 26.315 219.191 26.315C220.179 26.315 220.937 26.5793 221.466 27.108C221.994 27.628 222.259 28.317 222.259 29.175C222.259 29.851 222.077 30.4967 221.713 31.112C221.349 31.7273 220.933 32.2647 220.465 32.724C219.997 33.1747 219.386 33.7207 218.632 34.362H222.467V35.87H216.045V34.518L216.721 33.946Z" fill="#222222"/>
<path d="M128.488 51.488C127.976 50.9867 127.576 50.3493 127.288 49.576C127.005 48.8027 126.864 47.968 126.864 47.072C126.864 46.1547 127.013 45.2987 127.312 44.504C127.616 43.704 128.048 43.0453 128.608 42.528H129.368V42.6C128.771 43.16 128.32 43.8347 128.016 44.624C127.717 45.408 127.568 46.224 127.568 47.072C127.568 47.8987 127.709 48.688 127.992 49.44C128.28 50.192 128.699 50.8507 129.248 51.416V51.488H128.488ZM130.441 49.416C131.118 48.872 131.649 48.4267 132.033 48.08C132.417 47.728 132.739 47.3627 133.001 46.984C133.267 46.6 133.401 46.224 133.401 45.856C133.401 45.5093 133.315 45.2373 133.145 45.04C132.979 44.8373 132.71 44.736 132.337 44.736C131.974 44.736 131.691 44.8507 131.489 45.08C131.291 45.304 131.185 45.6053 131.169 45.984H130.465C130.486 45.3867 130.667 44.9253 131.009 44.6C131.35 44.2747 131.79 44.112 132.329 44.112C132.878 44.112 133.313 44.264 133.633 44.568C133.958 44.872 134.121 45.2907 134.121 45.824C134.121 46.2667 133.987 46.6987 133.721 47.12C133.459 47.536 133.161 47.904 132.825 48.224C132.489 48.5387 132.059 48.9067 131.537 49.328H134.289V49.936H130.441V49.416ZM135.53 47.048C135.53 46.1307 135.68 45.416 135.978 44.904C136.277 44.3867 136.8 44.128 137.546 44.128C138.288 44.128 138.808 44.3867 139.106 44.904C139.405 45.416 139.554 46.1307 139.554 47.048C139.554 47.9813 139.405 48.7067 139.106 49.224C138.808 49.7413 138.288 50 137.546 50C136.8 50 136.277 49.7413 135.978 49.224C135.68 48.7067 135.53 47.9813 135.53 47.048ZM138.834 47.048C138.834 46.584 138.802 46.192 138.738 45.872C138.68 45.5467 138.554 45.2853 138.362 45.088C138.176 44.8907 137.904 44.792 137.546 44.792C137.184 44.792 136.906 44.8907 136.714 45.088C136.528 45.2853 136.402 45.5467 136.338 45.872C136.28 46.192 136.25 46.584 136.25 47.048C136.25 47.528 136.28 47.9307 136.338 48.256C136.402 48.5813 136.528 48.8427 136.714 49.04C136.906 49.2373 137.184 49.336 137.546 49.336C137.904 49.336 138.176 49.2373 138.362 49.04C138.554 48.8427 138.68 48.5813 138.738 48.256C138.802 47.9307 138.834 47.528 138.834 47.048ZM140.762 44.88V44.216H142.266V50H141.53V44.88H140.762ZM147.604 44.848H144.796V46.672C144.919 46.5013 145.1 46.3627 145.34 46.256C145.58 46.144 145.839 46.088 146.116 46.088C146.559 46.088 146.919 46.1813 147.196 46.368C147.474 46.5493 147.671 46.7867 147.788 47.08C147.911 47.368 147.972 47.6747 147.972 48C147.972 48.384 147.9 48.728 147.756 49.032C147.612 49.336 147.391 49.576 147.092 49.752C146.799 49.928 146.434 50.016 145.996 50.016C145.436 50.016 144.983 49.872 144.636 49.584C144.29 49.296 144.079 48.912 144.004 48.432H144.716C144.786 48.736 144.932 48.9733 145.156 49.144C145.38 49.3147 145.663 49.4 146.004 49.4C146.426 49.4 146.743 49.2747 146.956 49.024C147.17 48.768 147.276 48.432 147.276 48.016C147.276 47.6 147.17 47.28 146.956 47.056C146.743 46.8267 146.428 46.712 146.012 46.712C145.73 46.712 145.482 46.7813 145.268 46.92C145.06 47.0533 144.908 47.2373 144.812 47.472H144.124V44.208H147.604V44.848ZM155.033 46.76V47.376H151.841V46.76H155.033ZM159.124 49.416C159.801 48.872 160.332 48.4267 160.716 48.08C161.1 47.728 161.422 47.3627 161.684 46.984C161.95 46.6 162.084 46.224 162.084 45.856C162.084 45.5093 161.998 45.2373 161.828 45.04C161.662 44.8373 161.393 44.736 161.02 44.736C160.657 44.736 160.374 44.8507 160.172 45.08C159.974 45.304 159.868 45.6053 159.852 45.984H159.148C159.169 45.3867 159.35 44.9253 159.692 44.6C160.033 44.2747 160.473 44.112 161.012 44.112C161.561 44.112 161.996 44.264 162.316 44.568C162.641 44.872 162.804 45.2907 162.804 45.824C162.804 46.2667 162.67 46.6987 162.404 47.12C162.142 47.536 161.844 47.904 161.508 48.224C161.172 48.5387 160.742 48.9067 160.22 49.328H162.972V49.936H159.124V49.416ZM164.213 47.048C164.213 46.1307 164.363 45.416 164.661 44.904C164.96 44.3867 165.483 44.128 166.229 44.128C166.971 44.128 167.491 44.3867 167.789 44.904C168.088 45.416 168.237 46.1307 168.237 47.048C168.237 47.9813 168.088 48.7067 167.789 49.224C167.491 49.7413 166.971 50 166.229 50C165.483 50 164.96 49.7413 164.661 49.224C164.363 48.7067 164.213 47.9813 164.213 47.048ZM167.517 47.048C167.517 46.584 167.485 46.192 167.421 45.872C167.363 45.5467 167.237 45.2853 167.045 45.088C166.859 44.8907 166.587 44.792 166.229 44.792C165.867 44.792 165.589 44.8907 165.397 45.088C165.211 45.2853 165.085 45.5467 165.021 45.872C164.963 46.192 164.933 46.584 164.933 47.048C164.933 47.528 164.963 47.9307 165.021 48.256C165.085 48.5813 165.211 48.8427 165.397 49.04C165.589 49.2373 165.867 49.336 166.229 49.336C166.587 49.336 166.859 49.2373 167.045 49.04C167.237 48.8427 167.363 48.5813 167.421 48.256C167.485 47.9307 167.517 47.528 167.517 47.048ZM169.445 44.88V44.216H170.949V50H170.213V44.88H169.445ZM176.287 44.848H173.479V46.672C173.602 46.5013 173.783 46.3627 174.023 46.256C174.263 46.144 174.522 46.088 174.799 46.088C175.242 46.088 175.602 46.1813 175.879 46.368C176.156 46.5493 176.354 46.7867 176.471 47.08C176.594 47.368 176.655 47.6747 176.655 48C176.655 48.384 176.583 48.728 176.439 49.032C176.295 49.336 176.074 49.576 175.775 49.752C175.482 49.928 175.116 50.016 174.679 50.016C174.119 50.016 173.666 49.872 173.319 49.584C172.972 49.296 172.762 48.912 172.687 48.432H173.399C173.468 48.736 173.615 48.9733 173.839 49.144C174.063 49.3147 174.346 49.4 174.687 49.4C175.108 49.4 175.426 49.2747 175.639 49.024C175.852 48.768 175.959 48.432 175.959 48.016C175.959 47.6 175.852 47.28 175.639 47.056C175.426 46.8267 175.111 46.712 174.695 46.712C174.412 46.712 174.164 46.7813 173.951 46.92C173.743 47.0533 173.591 47.2373 173.495 47.472H172.807V44.208H176.287V44.848ZM177.911 51.488V51.416C178.46 50.8507 178.876 50.192 179.159 49.44C179.447 48.688 179.591 47.8987 179.591 47.072C179.591 46.224 179.439 45.408 179.135 44.624C178.836 43.8347 178.388 43.16 177.791 42.6V42.528H178.551C179.111 43.0453 179.54 43.704 179.839 44.504C180.143 45.2987 180.295 46.1547 180.295 47.072C180.295 47.968 180.151 48.8027 179.863 49.576C179.58 50.3493 179.183 50.9867 178.671 51.488H177.911Z" fill="#848484"/>
<path d="M333.03 36.091C332.397 36.091 331.825 35.9827 331.314 35.766C330.811 35.5493 330.413 35.2373 330.118 34.83C329.823 34.4227 329.672 33.9417 329.663 33.387H331.613C331.639 33.7597 331.769 34.0543 332.003 34.271C332.246 34.4877 332.575 34.596 332.991 34.596C333.416 34.596 333.749 34.4963 333.992 34.297C334.235 34.089 334.356 33.8203 334.356 33.491C334.356 33.2223 334.274 33.0013 334.109 32.828C333.944 32.6547 333.736 32.5203 333.485 32.425C333.242 32.321 332.904 32.2083 332.471 32.087C331.882 31.9137 331.401 31.7447 331.028 31.58C330.664 31.4067 330.348 31.151 330.079 30.813C329.819 30.4663 329.689 30.007 329.689 29.435C329.689 28.8977 329.823 28.4297 330.092 28.031C330.361 27.6323 330.738 27.329 331.223 27.121C331.708 26.9043 332.263 26.796 332.887 26.796C333.823 26.796 334.581 27.0257 335.162 27.485C335.751 27.9357 336.076 28.5683 336.137 29.383H334.135C334.118 29.071 333.983 28.8153 333.732 28.616C333.489 28.408 333.164 28.304 332.757 28.304C332.402 28.304 332.116 28.395 331.899 28.577C331.691 28.759 331.587 29.0233 331.587 29.37C331.587 29.6127 331.665 29.8163 331.821 29.981C331.986 30.137 332.185 30.267 332.419 30.371C332.662 30.4663 333 30.579 333.433 30.709C334.022 30.8823 334.503 31.0557 334.876 31.229C335.249 31.4023 335.569 31.6623 335.838 32.009C336.107 32.3557 336.241 32.8107 336.241 33.374C336.241 33.8593 336.115 34.31 335.864 34.726C335.613 35.142 335.244 35.4757 334.759 35.727C334.274 35.9697 333.697 36.091 333.03 36.091ZM348.362 26.926V36H346.542V30.098L344.111 36H342.733L340.289 30.098V36H338.469V26.926H340.536L343.422 33.673L346.308 26.926H348.362ZM357.428 29.734C357.428 30.2193 357.311 30.6743 357.077 31.099C356.852 31.5237 356.492 31.866 355.998 32.126C355.513 32.386 354.898 32.516 354.152 32.516H352.631V36H350.811V26.926H354.152C354.854 26.926 355.452 27.0473 355.946 27.29C356.44 27.5327 356.809 27.8663 357.051 28.291C357.303 28.7157 357.428 29.1967 357.428 29.734ZM354.074 31.047C354.577 31.047 354.95 30.9343 355.192 30.709C355.435 30.475 355.556 30.15 355.556 29.734C355.556 28.85 355.062 28.408 354.074 28.408H352.631V31.047H354.074ZM367.131 36H365.311L361.19 29.773V36H359.37V26.913H361.19L365.311 33.153V26.913H367.131V36ZM372.899 28.2V26.523H376.032V36H374.16V28.2H372.899ZM385.607 26.926C386.561 26.926 387.397 27.1123 388.116 27.485C388.844 27.8577 389.403 28.3907 389.793 29.084C390.192 29.7687 390.391 30.566 390.391 31.476C390.391 32.386 390.192 33.1833 389.793 33.868C389.403 34.544 388.844 35.0683 388.116 35.441C387.397 35.8137 386.561 36 385.607 36H382.435V26.926H385.607ZM385.542 34.453C386.496 34.453 387.232 34.193 387.752 33.673C388.272 33.153 388.532 32.4207 388.532 31.476C388.532 30.5313 388.272 29.7947 387.752 29.266C387.232 28.7287 386.496 28.46 385.542 28.46H384.255V34.453H385.542ZM394.224 29.916C394.458 29.5347 394.761 29.2357 395.134 29.019C395.515 28.8023 395.948 28.694 396.434 28.694V30.605H395.953C395.381 30.605 394.947 30.7393 394.653 31.008C394.367 31.2767 394.224 31.7447 394.224 32.412V36H392.404V28.798H394.224V29.916ZM397.841 32.373C397.841 31.645 397.984 30.9993 398.27 30.436C398.565 29.8727 398.959 29.4393 399.453 29.136C399.956 28.8327 400.515 28.681 401.13 28.681C401.668 28.681 402.136 28.7893 402.534 29.006C402.942 29.2227 403.267 29.4957 403.509 29.825V28.798H405.342V36H403.509V34.947C403.275 35.285 402.95 35.5667 402.534 35.792C402.127 36.0087 401.655 36.117 401.117 36.117C400.511 36.117 399.956 35.961 399.453 35.649C398.959 35.337 398.565 34.8993 398.27 34.336C397.984 33.764 397.841 33.1097 397.841 32.373ZM403.509 32.399C403.509 31.957 403.423 31.58 403.249 31.268C403.076 30.9473 402.842 30.7047 402.547 30.54C402.253 30.3667 401.936 30.28 401.598 30.28C401.26 30.28 400.948 30.3623 400.662 30.527C400.376 30.6917 400.142 30.9343 399.96 31.255C399.787 31.567 399.7 31.9397 399.7 32.373C399.7 32.8063 399.787 33.1877 399.96 33.517C400.142 33.8377 400.376 34.0847 400.662 34.258C400.957 34.4313 401.269 34.518 401.598 34.518C401.936 34.518 402.253 34.4357 402.547 34.271C402.842 34.0977 403.076 33.855 403.249 33.543C403.423 33.2223 403.509 32.841 403.509 32.399ZM416.714 28.694C417.598 28.694 418.309 28.967 418.846 29.513C419.392 30.0503 419.665 30.8043 419.665 31.775V36H417.845V32.022C417.845 31.4587 417.702 31.0297 417.416 30.735C417.13 30.4317 416.74 30.28 416.246 30.28C415.752 30.28 415.358 30.4317 415.063 30.735C414.777 31.0297 414.634 31.4587 414.634 32.022V36H412.814V32.022C412.814 31.4587 412.671 31.0297 412.385 30.735C412.099 30.4317 411.709 30.28 411.215 30.28C410.712 30.28 410.314 30.4317 410.019 30.735C409.733 31.0297 409.59 31.4587 409.59 32.022V36H407.77V28.798H409.59V29.669C409.824 29.3657 410.123 29.1273 410.487 28.954C410.86 28.7807 411.267 28.694 411.709 28.694C412.272 28.694 412.775 28.8153 413.217 29.058C413.659 29.292 414.001 29.63 414.244 30.072C414.478 29.656 414.816 29.3223 415.258 29.071C415.709 28.8197 416.194 28.694 416.714 28.694ZM421.574 32.373C421.574 31.645 421.717 30.9993 422.003 30.436C422.298 29.8727 422.692 29.4393 423.186 29.136C423.689 28.8327 424.248 28.681 424.863 28.681C425.4 28.681 425.868 28.7893 426.267 29.006C426.674 29.2227 426.999 29.4957 427.242 29.825V28.798H429.075V36H427.242V34.947C427.008 35.285 426.683 35.5667 426.267 35.792C425.86 36.0087 425.387 36.117 424.85 36.117C424.243 36.117 423.689 35.961 423.186 35.649C422.692 35.337 422.298 34.8993 422.003 34.336C421.717 33.764 421.574 33.1097 421.574 32.373ZM427.242 32.399C427.242 31.957 427.155 31.58 426.982 31.268C426.809 30.9473 426.575 30.7047 426.28 30.54C425.985 30.3667 425.669 30.28 425.331 30.28C424.993 30.28 424.681 30.3623 424.395 30.527C424.109 30.6917 423.875 30.9343 423.693 31.255C423.52 31.567 423.433 31.9397 423.433 32.373C423.433 32.8063 423.52 33.1877 423.693 33.517C423.875 33.8377 424.109 34.0847 424.395 34.258C424.69 34.4313 425.002 34.518 425.331 34.518C425.669 34.518 425.985 34.4357 426.28 34.271C426.575 34.0977 426.809 33.855 426.982 33.543C427.155 33.2223 427.242 32.841 427.242 32.399ZM434.324 28.681C434.861 28.681 435.333 28.7893 435.741 29.006C436.148 29.214 436.469 29.487 436.703 29.825V28.798H438.536V36.052C438.536 36.7193 438.401 37.313 438.133 37.833C437.864 38.3617 437.461 38.7777 436.924 39.081C436.386 39.393 435.736 39.549 434.974 39.549C433.951 39.549 433.11 39.3107 432.452 38.834C431.802 38.3573 431.433 37.7073 431.347 36.884H433.154C433.249 37.2133 433.453 37.4733 433.765 37.664C434.085 37.8633 434.471 37.963 434.922 37.963C435.45 37.963 435.879 37.8027 436.209 37.482C436.538 37.17 436.703 36.6933 436.703 36.052V34.934C436.469 35.272 436.144 35.5537 435.728 35.779C435.32 36.0043 434.852 36.117 434.324 36.117C433.717 36.117 433.162 35.961 432.66 35.649C432.157 35.337 431.758 34.8993 431.464 34.336C431.178 33.764 431.035 33.1097 431.035 32.373C431.035 31.645 431.178 30.9993 431.464 30.436C431.758 29.8727 432.153 29.4393 432.647 29.136C433.149 28.8327 433.708 28.681 434.324 28.681ZM436.703 32.399C436.703 31.957 436.616 31.58 436.443 31.268C436.269 30.9473 436.035 30.7047 435.741 30.54C435.446 30.3667 435.13 30.28 434.792 30.28C434.454 30.28 434.142 30.3623 433.856 30.527C433.57 30.6917 433.336 30.9343 433.154 31.255C432.98 31.567 432.894 31.9397 432.894 32.373C432.894 32.8063 432.98 33.1877 433.154 33.517C433.336 33.8377 433.57 34.0847 433.856 34.258C434.15 34.4313 434.462 34.518 434.792 34.518C435.13 34.518 435.446 34.4357 435.741 34.271C436.035 34.0977 436.269 33.855 436.443 33.543C436.616 33.2223 436.703 32.841 436.703 32.399ZM440.495 32.373C440.495 31.645 440.638 30.9993 440.924 30.436C441.219 29.8727 441.613 29.4393 442.107 29.136C442.61 28.8327 443.169 28.681 443.784 28.681C444.322 28.681 444.79 28.7893 445.188 29.006C445.596 29.2227 445.921 29.4957 446.163 29.825V28.798H447.996V36H446.163V34.947C445.929 35.285 445.604 35.5667 445.188 35.792C444.781 36.0087 444.309 36.117 443.771 36.117C443.165 36.117 442.61 35.961 442.107 35.649C441.613 35.337 441.219 34.8993 440.924 34.336C440.638 33.764 440.495 33.1097 440.495 32.373ZM446.163 32.399C446.163 31.957 446.077 31.58 445.903 31.268C445.73 30.9473 445.496 30.7047 445.201 30.54C444.907 30.3667 444.59 30.28 444.252 30.28C443.914 30.28 443.602 30.3623 443.316 30.527C443.03 30.6917 442.796 30.9343 442.614 31.255C442.441 31.567 442.354 31.9397 442.354 32.373C442.354 32.8063 442.441 33.1877 442.614 33.517C442.796 33.8377 443.03 34.0847 443.316 34.258C443.611 34.4313 443.923 34.518 444.252 34.518C444.59 34.518 444.907 34.4357 445.201 34.271C445.496 34.0977 445.73 33.855 445.903 33.543C446.077 33.2223 446.163 32.841 446.163 32.399Z" fill="#222222"/>
<path d="M363.488 51.488C362.976 50.9867 362.576 50.3493 362.288 49.576C362.005 48.8027 361.864 47.968 361.864 47.072C361.864 46.1547 362.013 45.2987 362.312 44.504C362.616 43.704 363.048 43.0453 363.608 42.528H364.368V42.6C363.771 43.16 363.32 43.8347 363.016 44.624C362.717 45.408 362.568 46.224 362.568 47.072C362.568 47.8987 362.709 48.688 362.992 49.44C363.28 50.192 363.699 50.8507 364.248 51.416V51.488H363.488ZM365.441 49.416C366.118 48.872 366.649 48.4267 367.033 48.08C367.417 47.728 367.739 47.3627 368.001 46.984C368.267 46.6 368.401 46.224 368.401 45.856C368.401 45.5093 368.315 45.2373 368.145 45.04C367.979 44.8373 367.71 44.736 367.337 44.736C366.974 44.736 366.691 44.8507 366.489 45.08C366.291 45.304 366.185 45.6053 366.169 45.984H365.465C365.486 45.3867 365.667 44.9253 366.009 44.6C366.35 44.2747 366.79 44.112 367.329 44.112C367.878 44.112 368.313 44.264 368.633 44.568C368.958 44.872 369.121 45.2907 369.121 45.824C369.121 46.2667 368.987 46.6987 368.721 47.12C368.459 47.536 368.161 47.904 367.825 48.224C367.489 48.5387 367.059 48.9067 366.537 49.328H369.289V49.936H365.441V49.416ZM370.53 47.048C370.53 46.1307 370.68 45.416 370.978 44.904C371.277 44.3867 371.8 44.128 372.546 44.128C373.288 44.128 373.808 44.3867 374.106 44.904C374.405 45.416 374.554 46.1307 374.554 47.048C374.554 47.9813 374.405 48.7067 374.106 49.224C373.808 49.7413 373.288 50 372.546 50C371.8 50 371.277 49.7413 370.978 49.224C370.68 48.7067 370.53 47.9813 370.53 47.048ZM373.834 47.048C373.834 46.584 373.802 46.192 373.738 45.872C373.68 45.5467 373.554 45.2853 373.362 45.088C373.176 44.8907 372.904 44.792 372.546 44.792C372.184 44.792 371.906 44.8907 371.714 45.088C371.528 45.2853 371.402 45.5467 371.338 45.872C371.28 46.192 371.25 46.584 371.25 47.048C371.25 47.528 371.28 47.9307 371.338 48.256C371.402 48.5813 371.528 48.8427 371.714 49.04C371.906 49.2373 372.184 49.336 372.546 49.336C372.904 49.336 373.176 49.2373 373.362 49.04C373.554 48.8427 373.68 48.5813 373.738 48.256C373.802 47.9307 373.834 47.528 373.834 47.048ZM375.762 44.88V44.216H377.266V50H376.53V44.88H375.762ZM382.604 44.848H379.796V46.672C379.919 46.5013 380.1 46.3627 380.34 46.256C380.58 46.144 380.839 46.088 381.116 46.088C381.559 46.088 381.919 46.1813 382.196 46.368C382.474 46.5493 382.671 46.7867 382.788 47.08C382.911 47.368 382.972 47.6747 382.972 48C382.972 48.384 382.9 48.728 382.756 49.032C382.612 49.336 382.391 49.576 382.092 49.752C381.799 49.928 381.434 50.016 380.996 50.016C380.436 50.016 379.983 49.872 379.636 49.584C379.29 49.296 379.079 48.912 379.004 48.432H379.716C379.786 48.736 379.932 48.9733 380.156 49.144C380.38 49.3147 380.663 49.4 381.004 49.4C381.426 49.4 381.743 49.2747 381.956 49.024C382.17 48.768 382.276 48.432 382.276 48.016C382.276 47.6 382.17 47.28 381.956 47.056C381.743 46.8267 381.428 46.712 381.012 46.712C380.73 46.712 380.482 46.7813 380.268 46.92C380.06 47.0533 379.908 47.2373 379.812 47.472H379.124V44.208H382.604V44.848ZM390.033 46.76V47.376H386.841V46.76H390.033ZM394.124 49.416C394.801 48.872 395.332 48.4267 395.716 48.08C396.1 47.728 396.422 47.3627 396.684 46.984C396.95 46.6 397.084 46.224 397.084 45.856C397.084 45.5093 396.998 45.2373 396.828 45.04C396.662 44.8373 396.393 44.736 396.02 44.736C395.657 44.736 395.374 44.8507 395.172 45.08C394.974 45.304 394.868 45.6053 394.852 45.984H394.148C394.169 45.3867 394.35 44.9253 394.692 44.6C395.033 44.2747 395.473 44.112 396.012 44.112C396.561 44.112 396.996 44.264 397.316 44.568C397.641 44.872 397.804 45.2907 397.804 45.824C397.804 46.2667 397.67 46.6987 397.404 47.12C397.142 47.536 396.844 47.904 396.508 48.224C396.172 48.5387 395.742 48.9067 395.22 49.328H397.972V49.936H394.124V49.416ZM399.213 47.048C399.213 46.1307 399.363 45.416 399.661 44.904C399.96 44.3867 400.483 44.128 401.229 44.128C401.971 44.128 402.491 44.3867 402.789 44.904C403.088 45.416 403.237 46.1307 403.237 47.048C403.237 47.9813 403.088 48.7067 402.789 49.224C402.491 49.7413 401.971 50 401.229 50C400.483 50 399.96 49.7413 399.661 49.224C399.363 48.7067 399.213 47.9813 399.213 47.048ZM402.517 47.048C402.517 46.584 402.485 46.192 402.421 45.872C402.363 45.5467 402.237 45.2853 402.045 45.088C401.859 44.8907 401.587 44.792 401.229 44.792C400.867 44.792 400.589 44.8907 400.397 45.088C400.211 45.2853 400.085 45.5467 400.021 45.872C399.963 46.192 399.933 46.584 399.933 47.048C399.933 47.528 399.963 47.9307 400.021 48.256C400.085 48.5813 400.211 48.8427 400.397 49.04C400.589 49.2373 400.867 49.336 401.229 49.336C401.587 49.336 401.859 49.2373 402.045 49.04C402.237 48.8427 402.363 48.5813 402.421 48.256C402.485 47.9307 402.517 47.528 402.517 47.048ZM404.445 44.88V44.216H405.949V50H405.213V44.88H404.445ZM411.287 44.848H408.479V46.672C408.602 46.5013 408.783 46.3627 409.023 46.256C409.263 46.144 409.522 46.088 409.799 46.088C410.242 46.088 410.602 46.1813 410.879 46.368C411.156 46.5493 411.354 46.7867 411.471 47.08C411.594 47.368 411.655 47.6747 411.655 48C411.655 48.384 411.583 48.728 411.439 49.032C411.295 49.336 411.074 49.576 410.775 49.752C410.482 49.928 410.116 50.016 409.679 50.016C409.119 50.016 408.666 49.872 408.319 49.584C407.972 49.296 407.762 48.912 407.687 48.432H408.399C408.468 48.736 408.615 48.9733 408.839 49.144C409.063 49.3147 409.346 49.4 409.687 49.4C410.108 49.4 410.426 49.2747 410.639 49.024C410.852 48.768 410.959 48.432 410.959 48.016C410.959 47.6 410.852 47.28 410.639 47.056C410.426 46.8267 410.111 46.712 409.695 46.712C409.412 46.712 409.164 46.7813 408.951 46.92C408.743 47.0533 408.591 47.2373 408.495 47.472H407.807V44.208H411.287V44.848ZM412.911 51.488V51.416C413.46 50.8507 413.876 50.192 414.159 49.44C414.447 48.688 414.591 47.8987 414.591 47.072C414.591 46.224 414.439 45.408 414.135 44.624C413.836 43.8347 413.388 43.16 412.791 42.6V42.528H413.551C414.111 43.0453 414.54 43.704 414.839 44.504C415.143 45.2987 415.295 46.1547 415.295 47.072C415.295 47.968 415.151 48.8027 414.863 49.576C414.58 50.3493 414.183 50.9867 413.671 51.488H412.911Z" fill="#848484"/>
<path d="M581.03 36.091C580.397 36.091 579.825 35.9827 579.314 35.766C578.811 35.5493 578.413 35.2373 578.118 34.83C577.823 34.4227 577.672 33.9417 577.663 33.387H579.613C579.639 33.7597 579.769 34.0543 580.003 34.271C580.246 34.4877 580.575 34.596 580.991 34.596C581.416 34.596 581.749 34.4963 581.992 34.297C582.235 34.089 582.356 33.8203 582.356 33.491C582.356 33.2223 582.274 33.0013 582.109 32.828C581.944 32.6547 581.736 32.5203 581.485 32.425C581.242 32.321 580.904 32.2083 580.471 32.087C579.882 31.9137 579.401 31.7447 579.028 31.58C578.664 31.4067 578.348 31.151 578.079 30.813C577.819 30.4663 577.689 30.007 577.689 29.435C577.689 28.8977 577.823 28.4297 578.092 28.031C578.361 27.6323 578.738 27.329 579.223 27.121C579.708 26.9043 580.263 26.796 580.887 26.796C581.823 26.796 582.581 27.0257 583.162 27.485C583.751 27.9357 584.076 28.5683 584.137 29.383H582.135C582.118 29.071 581.983 28.8153 581.732 28.616C581.489 28.408 581.164 28.304 580.757 28.304C580.402 28.304 580.116 28.395 579.899 28.577C579.691 28.759 579.587 29.0233 579.587 29.37C579.587 29.6127 579.665 29.8163 579.821 29.981C579.986 30.137 580.185 30.267 580.419 30.371C580.662 30.4663 581 30.579 581.433 30.709C582.022 30.8823 582.503 31.0557 582.876 31.229C583.249 31.4023 583.569 31.6623 583.838 32.009C584.107 32.3557 584.241 32.8107 584.241 33.374C584.241 33.8593 584.115 34.31 583.864 34.726C583.613 35.142 583.244 35.4757 582.759 35.727C582.274 35.9697 581.697 36.091 581.03 36.091ZM596.362 26.926V36H594.542V30.098L592.111 36H590.733L588.289 30.098V36H586.469V26.926H588.536L591.422 33.673L594.308 26.926H596.362ZM603.933 36L600.631 31.957V36H598.811V26.926H600.631V30.995L603.933 26.926H606.13L602.386 31.424L606.234 36H603.933ZM615.842 36H614.022L609.901 29.773V36H608.081V26.913H609.901L614.022 33.153V26.913H615.842V36ZM621.753 34.154V32.724L626.004 26.64H628.123V32.568H629.267V34.154H628.123V36H626.303V34.154H621.753ZM626.42 28.59L623.755 32.568H626.42V28.59ZM640.179 31.346C640.69 31.4413 641.111 31.697 641.44 32.113C641.769 32.529 641.934 33.0057 641.934 33.543C641.934 34.0283 641.813 34.4573 641.57 34.83C641.336 35.194 640.994 35.48 640.543 35.688C640.092 35.896 639.559 36 638.944 36H635.031V26.926H638.775C639.39 26.926 639.919 27.0257 640.361 27.225C640.812 27.4243 641.15 27.7017 641.375 28.057C641.609 28.4123 641.726 28.8153 641.726 29.266C641.726 29.7947 641.583 30.2367 641.297 30.592C641.02 30.9473 640.647 31.1987 640.179 31.346ZM636.851 30.67H638.515C638.948 30.67 639.282 30.5747 639.516 30.384C639.75 30.1847 639.867 29.903 639.867 29.539C639.867 29.175 639.75 28.8933 639.516 28.694C639.282 28.4947 638.948 28.395 638.515 28.395H636.851V30.67ZM638.684 34.518C639.126 34.518 639.468 34.414 639.711 34.206C639.962 33.998 640.088 33.7033 640.088 33.322C640.088 32.932 639.958 32.6287 639.698 32.412C639.438 32.1867 639.087 32.074 638.645 32.074H636.851V34.518H638.684ZM647.232 36.117C646.539 36.117 645.915 35.9653 645.36 35.662C644.806 35.35 644.368 34.9123 644.047 34.349C643.735 33.7857 643.579 33.1357 643.579 32.399C643.579 31.6623 643.74 31.0123 644.06 30.449C644.39 29.8857 644.836 29.4523 645.399 29.149C645.963 28.837 646.591 28.681 647.284 28.681C647.978 28.681 648.606 28.837 649.169 29.149C649.733 29.4523 650.175 29.8857 650.495 30.449C650.825 31.0123 650.989 31.6623 650.989 32.399C650.989 33.1357 650.82 33.7857 650.482 34.349C650.153 34.9123 649.702 35.35 649.13 35.662C648.567 35.9653 647.934 36.117 647.232 36.117ZM647.232 34.531C647.562 34.531 647.869 34.453 648.155 34.297C648.45 34.1323 648.684 33.8897 648.857 33.569C649.031 33.2483 649.117 32.8583 649.117 32.399C649.117 31.7143 648.935 31.19 648.571 30.826C648.216 30.4533 647.778 30.267 647.258 30.267C646.738 30.267 646.301 30.4533 645.945 30.826C645.599 31.19 645.425 31.7143 645.425 32.399C645.425 33.0837 645.594 33.6123 645.932 33.985C646.279 34.349 646.712 34.531 647.232 34.531ZM655.796 28.681C656.333 28.681 656.805 28.7893 657.213 29.006C657.62 29.214 657.941 29.487 658.175 29.825V28.798H660.008V36.052C660.008 36.7193 659.873 37.313 659.605 37.833C659.336 38.3617 658.933 38.7777 658.396 39.081C657.858 39.393 657.208 39.549 656.446 39.549C655.423 39.549 654.582 39.3107 653.924 38.834C653.274 38.3573 652.905 37.7073 652.819 36.884H654.626C654.721 37.2133 654.925 37.4733 655.237 37.664C655.557 37.8633 655.943 37.963 656.394 37.963C656.922 37.963 657.351 37.8027 657.681 37.482C658.01 37.17 658.175 36.6933 658.175 36.052V34.934C657.941 35.272 657.616 35.5537 657.2 35.779C656.792 36.0043 656.324 36.117 655.796 36.117C655.189 36.117 654.634 35.961 654.132 35.649C653.629 35.337 653.23 34.8993 652.936 34.336C652.65 33.764 652.507 33.1097 652.507 32.373C652.507 31.645 652.65 30.9993 652.936 30.436C653.23 29.8727 653.625 29.4393 654.119 29.136C654.621 28.8327 655.18 28.681 655.796 28.681ZM658.175 32.399C658.175 31.957 658.088 31.58 657.915 31.268C657.741 30.9473 657.507 30.7047 657.213 30.54C656.918 30.3667 656.602 30.28 656.264 30.28C655.926 30.28 655.614 30.3623 655.328 30.527C655.042 30.6917 654.808 30.9343 654.626 31.255C654.452 31.567 654.366 31.9397 654.366 32.373C654.366 32.8063 654.452 33.1877 654.626 33.517C654.808 33.8377 655.042 34.0847 655.328 34.258C655.622 34.4313 655.934 34.518 656.264 34.518C656.602 34.518 656.918 34.4357 657.213 34.271C657.507 34.0977 657.741 33.855 657.915 33.543C658.088 33.2223 658.175 32.841 658.175 32.399ZM665.633 36.117C664.94 36.117 664.316 35.9653 663.761 35.662C663.206 35.35 662.769 34.9123 662.448 34.349C662.136 33.7857 661.98 33.1357 661.98 32.399C661.98 31.6623 662.14 31.0123 662.461 30.449C662.79 29.8857 663.237 29.4523 663.8 29.149C664.363 28.837 664.992 28.681 665.685 28.681C666.378 28.681 667.007 28.837 667.57 29.149C668.133 29.4523 668.575 29.8857 668.896 30.449C669.225 31.0123 669.39 31.6623 669.39 32.399C669.39 33.1357 669.221 33.7857 668.883 34.349C668.554 34.9123 668.103 35.35 667.531 35.662C666.968 35.9653 666.335 36.117 665.633 36.117ZM665.633 34.531C665.962 34.531 666.27 34.453 666.556 34.297C666.851 34.1323 667.085 33.8897 667.258 33.569C667.431 33.2483 667.518 32.8583 667.518 32.399C667.518 31.7143 667.336 31.19 666.972 30.826C666.617 30.4533 666.179 30.267 665.659 30.267C665.139 30.267 664.701 30.4533 664.346 30.826C663.999 31.19 663.826 31.7143 663.826 32.399C663.826 33.0837 663.995 33.6123 664.333 33.985C664.68 34.349 665.113 34.531 665.633 34.531ZM673.195 29.916C673.429 29.5347 673.732 29.2357 674.105 29.019C674.486 28.8023 674.92 28.694 675.405 28.694V30.605H674.924C674.352 30.605 673.919 30.7393 673.624 31.008C673.338 31.2767 673.195 31.7447 673.195 32.412V36H671.375V28.798H673.195V29.916Z" fill="#222222"/>
<path d="M601.488 51.488C600.976 50.9867 600.576 50.3493 600.288 49.576C600.005 48.8027 599.864 47.968 599.864 47.072C599.864 46.1547 600.013 45.2987 600.312 44.504C600.616 43.704 601.048 43.0453 601.608 42.528H602.368V42.6C601.771 43.16 601.32 43.8347 601.016 44.624C600.717 45.408 600.568 46.224 600.568 47.072C600.568 47.8987 600.709 48.688 600.992 49.44C601.28 50.192 601.699 50.8507 602.248 51.416V51.488H601.488ZM603.441 49.416C604.118 48.872 604.649 48.4267 605.033 48.08C605.417 47.728 605.739 47.3627 606.001 46.984C606.267 46.6 606.401 46.224 606.401 45.856C606.401 45.5093 606.315 45.2373 606.145 45.04C605.979 44.8373 605.71 44.736 605.337 44.736C604.974 44.736 604.691 44.8507 604.489 45.08C604.291 45.304 604.185 45.6053 604.169 45.984H603.465C603.486 45.3867 603.667 44.9253 604.009 44.6C604.35 44.2747 604.79 44.112 605.329 44.112C605.878 44.112 606.313 44.264 606.633 44.568C606.958 44.872 607.121 45.2907 607.121 45.824C607.121 46.2667 606.987 46.6987 606.721 47.12C606.459 47.536 606.161 47.904 605.825 48.224C605.489 48.5387 605.059 48.9067 604.537 49.328H607.289V49.936H603.441V49.416ZM608.53 47.048C608.53 46.1307 608.68 45.416 608.978 44.904C609.277 44.3867 609.8 44.128 610.546 44.128C611.288 44.128 611.808 44.3867 612.106 44.904C612.405 45.416 612.554 46.1307 612.554 47.048C612.554 47.9813 612.405 48.7067 612.106 49.224C611.808 49.7413 611.288 50 610.546 50C609.8 50 609.277 49.7413 608.978 49.224C608.68 48.7067 608.53 47.9813 608.53 47.048ZM611.834 47.048C611.834 46.584 611.802 46.192 611.738 45.872C611.68 45.5467 611.554 45.2853 611.362 45.088C611.176 44.8907 610.904 44.792 610.546 44.792C610.184 44.792 609.906 44.8907 609.714 45.088C609.528 45.2853 609.402 45.5467 609.338 45.872C609.28 46.192 609.25 46.584 609.25 47.048C609.25 47.528 609.28 47.9307 609.338 48.256C609.402 48.5813 609.528 48.8427 609.714 49.04C609.906 49.2373 610.184 49.336 610.546 49.336C610.904 49.336 611.176 49.2373 611.362 49.04C611.554 48.8427 611.68 48.5813 611.738 48.256C611.802 47.9307 611.834 47.528 611.834 47.048ZM613.762 44.88V44.216H615.266V50H614.53V44.88H613.762ZM620.604 44.848H617.796V46.672C617.919 46.5013 618.1 46.3627 618.34 46.256C618.58 46.144 618.839 46.088 619.116 46.088C619.559 46.088 619.919 46.1813 620.196 46.368C620.474 46.5493 620.671 46.7867 620.788 47.08C620.911 47.368 620.972 47.6747 620.972 48C620.972 48.384 620.9 48.728 620.756 49.032C620.612 49.336 620.391 49.576 620.092 49.752C619.799 49.928 619.434 50.016 618.996 50.016C618.436 50.016 617.983 49.872 617.636 49.584C617.29 49.296 617.079 48.912 617.004 48.432H617.716C617.786 48.736 617.932 48.9733 618.156 49.144C618.38 49.3147 618.663 49.4 619.004 49.4C619.426 49.4 619.743 49.2747 619.956 49.024C620.17 48.768 620.276 48.432 620.276 48.016C620.276 47.6 620.17 47.28 619.956 47.056C619.743 46.8267 619.428 46.712 619.012 46.712C618.73 46.712 618.482 46.7813 618.268 46.92C618.06 47.0533 617.908 47.2373 617.812 47.472H617.124V44.208H620.604V44.848ZM628.033 46.76V47.376H624.841V46.76H628.033ZM632.124 49.416C632.801 48.872 633.332 48.4267 633.716 48.08C634.1 47.728 634.422 47.3627 634.684 46.984C634.95 46.6 635.084 46.224 635.084 45.856C635.084 45.5093 634.998 45.2373 634.828 45.04C634.662 44.8373 634.393 44.736 634.02 44.736C633.657 44.736 633.374 44.8507 633.172 45.08C632.974 45.304 632.868 45.6053 632.852 45.984H632.148C632.169 45.3867 632.35 44.9253 632.692 44.6C633.033 44.2747 633.473 44.112 634.012 44.112C634.561 44.112 634.996 44.264 635.316 44.568C635.641 44.872 635.804 45.2907 635.804 45.824C635.804 46.2667 635.67 46.6987 635.404 47.12C635.142 47.536 634.844 47.904 634.508 48.224C634.172 48.5387 633.742 48.9067 633.22 49.328H635.972V49.936H632.124V49.416ZM637.213 47.048C637.213 46.1307 637.363 45.416 637.661 44.904C637.96 44.3867 638.483 44.128 639.229 44.128C639.971 44.128 640.491 44.3867 640.789 44.904C641.088 45.416 641.237 46.1307 641.237 47.048C641.237 47.9813 641.088 48.7067 640.789 49.224C640.491 49.7413 639.971 50 639.229 50C638.483 50 637.96 49.7413 637.661 49.224C637.363 48.7067 637.213 47.9813 637.213 47.048ZM640.517 47.048C640.517 46.584 640.485 46.192 640.421 45.872C640.363 45.5467 640.237 45.2853 640.045 45.088C639.859 44.8907 639.587 44.792 639.229 44.792C638.867 44.792 638.589 44.8907 638.397 45.088C638.211 45.2853 638.085 45.5467 638.021 45.872C637.963 46.192 637.933 46.584 637.933 47.048C637.933 47.528 637.963 47.9307 638.021 48.256C638.085 48.5813 638.211 48.8427 638.397 49.04C638.589 49.2373 638.867 49.336 639.229 49.336C639.587 49.336 639.859 49.2373 640.045 49.04C640.237 48.8427 640.363 48.5813 640.421 48.256C640.485 47.9307 640.517 47.528 640.517 47.048ZM642.445 44.88V44.216H643.949V50H643.213V44.88H642.445ZM649.287 44.848H646.479V46.672C646.602 46.5013 646.783 46.3627 647.023 46.256C647.263 46.144 647.522 46.088 647.799 46.088C648.242 46.088 648.602 46.1813 648.879 46.368C649.156 46.5493 649.354 46.7867 649.471 47.08C649.594 47.368 649.655 47.6747 649.655 48C649.655 48.384 649.583 48.728 649.439 49.032C649.295 49.336 649.074 49.576 648.775 49.752C648.482 49.928 648.116 50.016 647.679 50.016C647.119 50.016 646.666 49.872 646.319 49.584C645.972 49.296 645.762 48.912 645.687 48.432H646.399C646.468 48.736 646.615 48.9733 646.839 49.144C647.063 49.3147 647.346 49.4 647.687 49.4C648.108 49.4 648.426 49.2747 648.639 49.024C648.852 48.768 648.959 48.432 648.959 48.016C648.959 47.6 648.852 47.28 648.639 47.056C648.426 46.8267 648.111 46.712 647.695 46.712C647.412 46.712 647.164 46.7813 646.951 46.92C646.743 47.0533 646.591 47.2373 646.495 47.472H645.807V44.208H649.287V44.848ZM650.911 51.488V51.416C651.46 50.8507 651.876 50.192 652.159 49.44C652.447 48.688 652.591 47.8987 652.591 47.072C652.591 46.224 652.439 45.408 652.135 44.624C651.836 43.8347 651.388 43.16 650.791 42.6V42.528H651.551C652.111 43.0453 652.54 43.704 652.839 44.504C653.143 45.2987 653.295 46.1547 653.295 47.072C653.295 47.968 653.151 48.8027 652.863 49.576C652.58 50.3493 652.183 50.9867 651.671 51.488H650.911Z" fill="#848484"/>
<line x1="2.5" y1="7.5" x2="779.5" y2="7.5" stroke="black" stroke-width="5" stroke-linecap="round"/>
<line x1="0.5" y1="7.5" x2="781.5" y2="7.5" stroke="#848484" stroke-linecap="round"/>
<circle cx="153.5" cy="7.5" r="7.5" fill="black"/>
<circle cx="388.5" cy="7.5" r="7.5" fill="black"/>
<circle cx="626.5" cy="7.5" r="7.5" fill="black"/>
<circle cx="153.5" cy="7.5" r="3.5" fill="#848484"/>
<circle cx="388.5" cy="7.5" r="3.5" fill="#848484"/>
<circle cx="626.5" cy="7.5" r="3.5" fill="#848484"/>
</svg>
