<svg width="24" height="24" viewBox="0 0 24 24" fill="none" xmlns="http://www.w3.org/2000/svg">
<g clip-path="url(#clip0_2_94)">
<path d="M14.999 15.0958C16.6553 15.0958 17.998 13.7531 17.998 12.0968C17.998 10.4405 16.6553 9.09779 14.999 9.09779C13.3427 9.09779 12 10.4405 12 12.0968C12 13.7531 13.3427 15.0958 14.999 15.0958Z" stroke="white" stroke-width="2" stroke-linecap="round" stroke-linejoin="round"/>
<path d="M12 9.09779V3.09988H9.00101C8.20562 3.09988 7.44282 3.41585 6.8804 3.97827C6.31798 4.54069 6.00201 5.30349 6.00201 6.09888C6.00201 6.89426 6.31798 7.65706 6.8804 8.21948C7.44282 8.7819 8.20562 9.09787 9.00101 9.09787L12 9.09779Z" stroke="white" stroke-width="2" stroke-linecap="round" stroke-linejoin="round"/>
<path d="M12 9.09779V15.0957L9.00101 15.0958C8.20562 15.0958 7.44282 14.7798 6.8804 14.2174C6.31798 13.655 6.00201 12.8922 6.00201 12.0968C6.00201 11.3014 6.31798 10.5386 6.8804 9.97617C7.44282 9.41375 8.20562 9.09779 9.00101 9.09779H12ZM12 9.09779V3.09988H14.999C15.7944 3.09988 16.5572 3.41585 17.1196 3.97827C17.682 4.54069 17.998 5.30349 17.998 6.09888C17.998 6.89426 17.682 7.65706 17.1196 8.21948C16.5572 8.7819 15.7944 9.09787 14.999 9.09787L12 9.09779Z" stroke="white" stroke-width="2" stroke-linecap="round" stroke-linejoin="round"/>
<path d="M12 15.0957V18.0947C12 18.6879 11.8241 19.2677 11.4946 19.7609C11.1651 20.2541 10.6967 20.6385 10.1487 20.8655C9.60071 21.0924 8.99771 21.1518 8.41596 21.0361C7.83421 20.9204 7.29983 20.6348 6.88041 20.2154C6.46099 19.796 6.17536 19.2616 6.05964 18.6798C5.94392 18.0981 6.00331 17.4951 6.2303 16.9471C6.45728 16.3991 6.84167 15.9307 7.33485 15.6012C7.82804 15.2717 8.40786 15.0958 9.00101 15.0958L12 15.0957Z" stroke="white" stroke-width="2" stroke-linecap="round" stroke-linejoin="round"/>
</g>
<defs>
<clipPath id="clip0_2_94">
<rect width="22.5806" height="22.5806" fill="white" transform="translate(0.709671 0.806458)"/>
</clipPath>
</defs>
</svg>
