<svg width="43" height="17" viewBox="0 0 43 17" fill="none" xmlns="http://www.w3.org/2000/svg">
<path d="M30.0948 13.1472C32.2339 15.2843 36.0484 14.9375 38.615 12.373C41.1795 9.80649 41.5263 5.99198 39.3892 3.85287C37.2501 1.71577 33.4355 2.06254 30.869 4.62706C28.3045 7.19359 27.9577 11.0081 30.0948 13.1472Z" stroke="white" stroke-width="3" stroke-linecap="square" stroke-linejoin="round"/>
<path d="M24.0161 2.92139C21.8307 1.91937 18.8851 2.53631 16.7762 4.62703C14.1875 7.19356 13.8387 11.0081 15.994 13.1472C18.1512 15.2843 21.998 14.9375 24.5847 12.373C25.6592 11.3243 26.3891 9.97348 26.6774 8.50002H21.7843" stroke="white" stroke-width="3" stroke-linecap="square" stroke-linejoin="round"/>
<path d="M9.54032 14.5484H6.51613" stroke="white" stroke-width="3" stroke-linecap="round" stroke-linejoin="round"/>
<path d="M10.5484 2.45161H6.51613" stroke="white" stroke-width="3" stroke-linecap="round" stroke-linejoin="round"/>
<path d="M8.53226 8.5H2.48387" stroke="white" stroke-width="3" stroke-linecap="round" stroke-linejoin="round"/>
</svg>
