<svg width="22" height="25" viewBox="0 0 22 25" fill="none" xmlns="http://www.w3.org/2000/svg">
<path d="M20.3259 0H1.20867C0.481314 0 -0.0763105 0.630372 0.00854725 1.3456L2.19059 21.0084C2.23908 21.4933 2.59067 21.9054 3.06345 22.0388L10.4339 24.1481C10.6521 24.2087 10.8825 24.2087 11.1008 24.1481L18.4711 22.0388C18.9439 21.9054 19.2833 21.4933 19.344 21.0084L21.526 1.3456C21.6109 0.630372 21.0532 0 20.3259 0ZM15.9254 6.66739H6.63961L7.0396 10.3042H15.3193C15.5738 10.3042 15.8163 10.4133 15.9981 10.6072C16.1679 10.8012 16.2527 11.0558 16.2285 11.3103L15.6223 17.3716C15.586 17.7474 15.3315 18.0505 14.9678 18.1596L10.725 19.3718C10.6401 19.3961 10.5551 19.4082 10.4703 19.4082C10.3854 19.4082 10.3005 19.3961 10.2157 19.3718L5.97281 18.1596C5.58489 18.0505 5.31823 17.6868 5.31823 17.2867V14.8622C5.31823 14.3652 5.7304 13.953 6.22742 13.953C6.72444 13.953 7.13661 14.3652 7.13661 14.8622V16.5957L10.4703 17.5534L13.8646 16.5836L14.3131 12.1347H6.22742C5.76676 12.1347 5.37884 11.7831 5.31823 11.3224L4.7121 5.86731C4.68786 5.61273 4.76059 5.35815 4.94243 5.16419C5.11215 4.97023 5.36672 4.86112 5.62129 4.86112H15.9254C16.4224 4.86112 16.8346 5.27329 16.8346 5.77031C16.8346 6.26734 16.4224 6.66739 15.9254 6.66739Z" fill="white"/>
</svg>
