<svg width="39" height="25" viewBox="0 0 39 25" fill="none" xmlns="http://www.w3.org/2000/svg">
<path d="M26.9633 0.806458C26.7702 0.806458 26.5935 0.961104 26.5935 1.17626V7.93365L25.0614 7.04035C24.9655 6.98379 24.8574 6.9563 24.7492 6.9563C24.641 6.9563 24.533 6.98379 24.4371 7.04035L20.7558 9.18715C20.564 9.2978 20.446 9.50257 20.446 9.72265V14.0211C20.446 14.2424 20.564 14.4459 20.7558 14.5566L24.4371 16.7034C24.533 16.7599 24.641 16.7874 24.7492 16.7874C24.8574 16.7874 24.9655 16.7599 25.0614 16.7034L28.7427 14.5566C28.9345 14.4459 29.0524 14.2411 29.0524 14.0211V11.8719V9.72265V2.3193C29.0524 2.10046 28.9356 1.89926 28.7475 1.78861L27.1458 0.856886C27.0855 0.82246 27.0247 0.806458 26.9633 0.806458ZM14.9133 6.9563C14.8054 6.9563 14.6977 6.98441 14.6011 7.04035L10.9199 9.18715C10.7281 9.2978 10.6101 9.50257 10.6101 9.72265V14.0211C10.6101 14.2424 10.7281 14.4459 10.9199 14.5566L14.6011 16.7034C14.7942 16.8152 15.0325 16.8152 15.2255 16.7034L18.9068 14.5566C19.0986 14.4459 19.2165 14.2411 19.2165 14.0211V9.72265C19.2165 9.50134 19.0986 9.2978 18.9068 9.18715L15.2255 7.04035C15.129 6.98441 15.0212 6.9563 14.9133 6.9563ZM34.5851 6.9563C34.4769 6.9563 34.3689 6.98379 34.273 7.04035L30.5917 9.18715C30.3999 9.2978 30.2819 9.50257 30.2819 9.72265V14.0211C30.2819 14.2424 30.3999 14.4459 30.5917 14.5566L34.1625 16.7154C34.3543 16.8322 34.595 16.8333 34.7892 16.7202L36.5446 15.6996C36.7266 15.5951 36.7278 15.3311 36.5446 15.2241L32.7409 12.9837V10.7768L34.5851 9.70344L36.4294 10.7768V12.3137C36.4294 12.519 36.602 12.5506 36.7175 12.4818C37.1823 12.2088 38.5834 11.3964 38.5834 11.3964C38.7715 11.287 38.8883 11.0845 38.8883 10.8657V9.72265C38.8883 9.50134 38.7704 9.2978 38.5786 9.18715L34.8973 7.04035C34.8002 6.98379 34.6933 6.9563 34.5851 6.9563ZM5.07741 6.9587C4.96922 6.9587 4.86114 6.98619 4.76524 7.04275L1.08397 9.18715C0.892174 9.29903 0.7742 9.50374 0.7742 9.72505V15.2121C0.7742 15.4802 1.06415 15.6463 1.29529 15.5123L2.92821 14.5614C3.11632 14.4507 3.23318 14.2495 3.23318 14.0307V10.7816L5.07741 9.70584L6.92164 10.7816V14.0307C6.92164 14.2495 7.0385 14.4507 7.22661 14.5614L8.85953 15.5123C9.09067 15.6475 9.38062 15.4802 9.38062 15.2121V9.72505C9.38062 9.50374 9.26265 9.29903 9.07085 9.18715L5.38959 7.04275C5.29368 6.98619 5.18561 6.9587 5.07741 6.9587ZM24.7492 9.70344L26.5935 10.7792V11.8719V12.9645L24.7492 14.0403L22.905 12.9645V10.7792L24.7492 9.70344ZM34.5851 10.6472L33.5309 11.2619V12.489L34.5851 13.1013L35.6393 12.489V11.2619L34.5851 10.6472ZM19.716 15.5579C19.5895 15.5579 19.4617 15.5889 19.351 15.6516L15.8931 17.6495C15.6656 17.7749 15.5281 18.0217 15.5281 18.2786V22.2697C15.5281 22.5266 15.6718 22.7685 15.8931 22.8988L16.8032 23.4175C17.2396 23.6327 17.4001 23.6336 17.598 23.6336C18.2497 23.6336 18.621 23.2439 18.621 22.5554V18.6124C18.621 18.5522 18.5742 18.5092 18.5201 18.5092H18.0831C18.0228 18.5092 17.9798 18.5583 17.9798 18.6124V22.5554C17.9798 22.8542 17.6641 23.1606 17.149 22.9036L16.2028 22.3585C16.1721 22.3401 16.15 22.3029 16.15 22.2673V18.2762C16.15 18.2406 16.1672 18.1986 16.2028 18.1802L19.6608 16.1871C19.6977 16.1686 19.7393 16.1686 19.7688 16.1871L23.2292 18.1802C23.2648 18.1986 23.282 18.2344 23.282 18.2762V22.2673C23.282 22.3091 23.2587 22.3449 23.2292 22.3633L19.7688 24.3636C19.7381 24.3821 19.6903 24.3821 19.6608 24.3636L18.7771 23.8378C18.7537 23.8255 18.7164 23.8183 18.693 23.8306C18.4484 23.9744 18.3994 23.9932 18.1719 24.0707C18.1117 24.0891 18.0298 24.1261 18.2032 24.222L19.351 24.904C19.4653 24.9642 19.5906 25 19.716 25C19.8476 25 19.9754 24.9643 20.0762 24.8991L23.5341 22.8988C23.7616 22.7734 23.8992 22.5266 23.8992 22.2697V18.2786C23.8992 18.0217 23.7555 17.781 23.5341 17.6495L20.0762 15.6516C19.9686 15.5889 19.8425 15.5579 19.716 15.5579ZM25.1094 17.3997C24.7566 17.3997 24.4467 17.6851 24.4467 18.0625C24.4467 18.4277 24.7443 18.7277 25.1094 18.7277C25.4746 18.7277 25.7722 18.4277 25.7722 18.0625C25.7722 17.6851 25.4684 17.3936 25.1094 17.3997ZM25.1022 17.5054C25.4145 17.5054 25.6665 17.7515 25.6665 18.0625C25.6665 18.3674 25.4133 18.6195 25.1022 18.6268C24.7961 18.6268 24.5475 18.3736 24.5475 18.0625C24.5475 17.7515 24.7973 17.5054 25.1022 17.5054ZM24.8597 17.6855V18.4323H25.0014V18.1346H25.1334C25.1875 18.1346 25.2004 18.1576 25.2127 18.1994C25.2127 18.2055 25.2354 18.3991 25.2415 18.4347H25.3952C25.378 18.3991 25.3653 18.2969 25.3592 18.2354C25.342 18.1395 25.3363 18.0735 25.2343 18.0673C25.2884 18.0489 25.3784 18.0201 25.3784 17.8824C25.3784 17.6845 25.2064 17.6855 25.1166 17.6855H24.8597ZM25.0014 17.8056H25.1214C25.1583 17.8056 25.2295 17.8044 25.2295 17.9064C25.2295 17.9482 25.2114 18.0157 25.1142 18.0145H25.0014V17.8056ZM20.6429 18.4155C19.6556 18.4155 19.07 18.8363 19.07 19.5297C19.07 20.2896 19.6566 20.4928 20.6021 20.5887C21.7332 20.7018 21.822 20.8645 21.822 21.0858C21.822 21.4743 21.5101 21.6357 20.7798 21.6357C19.8638 21.6357 19.6623 21.4086 19.5959 20.9537C19.5898 20.9058 19.5468 20.8697 19.4927 20.8697H19.0436C18.9895 20.8697 18.9428 20.9127 18.9428 20.9729C18.9428 21.5533 19.2591 22.2481 20.7726 22.2481C21.8828 22.2468 22.5112 21.8167 22.5112 21.0618C22.5112 20.3143 22.0078 20.1154 20.9431 19.9716C19.8661 19.8277 19.7592 19.7554 19.7592 19.5033C19.7592 19.2943 19.8474 19.0207 20.6429 19.0207C21.3548 19.0207 21.6201 19.1763 21.7283 19.6546C21.7406 19.7026 21.774 19.7315 21.822 19.7315H22.271C22.3005 19.7315 22.3259 19.7199 22.3431 19.7026C22.3615 19.6793 22.3732 19.6553 22.3671 19.6258C22.2958 18.7996 21.7507 18.4155 20.6429 18.4155Z" fill="white"/>
</svg>
