<svg width="39" height="21" viewBox="0 0 39 21" fill="none" xmlns="http://www.w3.org/2000/svg">
<path d="M11.2627 7.24897H9.75228L8.9294 11.4784H10.2709C11.1561 11.4784 11.8173 11.3107 12.2545 10.9741C12.6845 10.6435 12.9779 10.0818 13.1277 9.30199C13.2762 8.55337 13.2079 8.02275 12.9348 7.71132C12.6533 7.40588 12.0976 7.24897 11.2627 7.24897ZM19.2292 0.0322571C8.64193 0.0322571 0.0645142 4.54914 0.0645142 10.1129C0.0645142 15.6767 8.64193 20.1935 19.2292 20.1935C29.8166 20.1935 38.394 15.6767 38.394 10.1129C38.394 4.54914 29.8166 0.0322571 19.2292 0.0322571ZM14.02 11.9347C13.608 12.3336 13.1037 12.6331 12.5599 12.8127C12.0233 12.9816 11.3382 13.075 10.5081 13.075H8.61677L8.09933 15.7581H5.89658L7.86216 5.6583H12.0916C13.3648 5.6583 14.2943 5.98889 14.88 6.65606C15.461 7.32324 15.6418 8.25991 15.4035 9.45771C15.3172 9.93203 15.1483 10.3872 14.9184 10.8124C14.6872 11.2161 14.3949 11.5922 14.0188 11.9347H14.02ZM20.4522 13.075L21.3194 8.60368C21.4188 8.09701 21.3817 7.74965 21.2056 7.5604C21.0379 7.37953 20.669 7.28611 20.1084 7.28611H18.368L17.2457 13.075H15.0561L17.0205 2.96925H19.2041L18.6806 5.6583H20.6271C21.8572 5.6583 22.6981 5.87031 23.1604 6.29433C23.6287 6.72554 23.7653 7.41666 23.5856 8.37251L22.6669 13.0762L20.4522 13.075ZM32.5787 9.45771C32.4924 9.93203 32.3295 10.3872 32.0936 10.8124C31.8684 11.2161 31.5701 11.5922 31.2012 11.9347C30.7832 12.3276 30.2849 12.6331 29.7351 12.8127C29.1985 12.9816 28.5122 13.075 27.6833 13.075H25.7991L25.2757 15.7581H23.073L25.0385 5.6583H29.268C30.5412 5.6583 31.4707 5.98889 32.0564 6.66325C32.6374 7.32443 32.817 8.25991 32.5787 9.45771ZM28.4379 7.24897H26.9335L26.1106 11.4784H27.4461C28.3373 11.4784 28.9985 11.3107 29.4297 10.9741C29.8657 10.6435 30.1591 10.0818 30.31 9.30199C30.4586 8.55337 30.3903 8.02275 30.1088 7.71132C29.8357 7.40588 29.2739 7.24897 28.4379 7.24897Z" fill="white"/>
</svg>
