<svg width="23" height="25" viewBox="0 0 23 25" fill="none" xmlns="http://www.w3.org/2000/svg">
<path d="M10.2247 10.2071C9.85461 10.4208 9.55623 10.7394 9.36725 11.1226C9.17826 11.5058 9.10716 11.9365 9.16294 12.3601C9.21871 12.7837 9.39886 13.1813 9.6806 13.5026C9.96233 13.8238 10.333 14.0543 10.7457 14.1649C11.1585 14.2755 11.5947 14.2612 11.9993 14.1238C12.404 13.9865 12.7587 13.7322 13.0188 13.3932C13.279 13.0542 13.4327 12.6457 13.4606 12.2193C13.4885 11.7929 13.3894 11.3678 13.1757 10.9978C12.8892 10.5017 12.4174 10.1396 11.8639 9.99135C11.3105 9.84307 10.7209 9.92069 10.2247 10.2071ZM19.9077 12.5511C19.7659 12.389 19.6162 12.2265 19.4588 12.0635C19.5688 11.9479 19.6752 11.8324 19.7781 11.7169C21.7206 9.53437 22.5405 7.34554 21.7808 6.02962C21.0524 4.76793 18.8855 4.39194 16.1729 4.91939C15.9057 4.97167 15.6399 5.03064 15.3757 5.0963C15.3251 4.92191 15.2713 4.74852 15.2143 4.57614C14.294 1.80292 12.8074 -0.000955263 11.288 3.79518e-07C9.83109 0.0006657 8.42296 1.69002 7.52467 4.30341C7.43629 4.56123 7.35453 4.82119 7.27939 5.0833C7.10272 5.03996 6.9253 4.99992 6.74714 4.96318C3.88505 4.37555 1.57981 4.76257 0.821623 6.07923C0.0946086 7.34184 0.854925 9.40561 2.67062 11.489C2.85069 11.6952 3.03586 11.8967 3.22613 12.0936C3.00183 12.3246 2.78944 12.5555 2.59147 12.7852C0.819784 14.8392 0.102943 16.8692 0.828784 18.1264C1.57841 19.4249 3.8512 19.8494 6.61756 19.305C6.84175 19.2606 7.0647 19.2106 7.28641 19.155C7.36763 19.4385 7.45672 19.7196 7.55369 19.9982C8.44802 22.5591 9.84826 24.1941 11.3 24.1935C12.7994 24.1927 14.3024 22.436 15.213 19.7677C15.2849 19.5568 15.353 19.3378 15.4175 19.1123C15.7039 19.1836 15.9922 19.2468 16.2823 19.302C18.9476 19.8063 21.0635 19.4097 21.788 18.1516C22.5362 16.8521 21.7648 14.6725 19.9077 12.5511ZM1.71725 6.59495C2.18402 5.78447 4.06794 5.46827 6.53911 5.9756C6.69704 6.00807 6.85768 6.04436 7.02102 6.08447C6.77976 7.15172 6.60952 8.2338 6.51143 9.32357C5.61978 9.95085 4.76966 10.6352 3.96641 11.3723C3.78944 11.1893 3.61719 11.0018 3.44966 10.8099C1.89394 9.02478 1.27912 7.3558 1.71725 6.59495ZM6.41884 13.5241C5.80123 13.0564 5.22725 12.5773 4.7063 12.0954C5.22689 11.6166 5.80123 11.1391 6.41759 10.6727C6.39544 11.1478 6.38446 11.6233 6.38466 12.0991C6.38499 12.5743 6.39638 13.0493 6.41884 13.5241ZM6.41811 18.2909C5.36964 18.5241 4.28721 18.5622 3.22492 18.4036C2.93371 18.3809 2.65024 18.2988 2.39204 18.1622C2.13383 18.0257 1.90637 17.8376 1.72371 17.6097C1.28331 16.8468 1.85891 15.2169 3.37409 13.4602C3.56459 13.2401 3.76132 13.0256 3.96431 12.817C4.76768 13.5579 5.61918 14.2449 6.51323 14.8735C6.61267 15.9772 6.7849 17.0731 7.02881 18.1541C6.82641 18.2048 6.62284 18.2504 6.41811 18.2909ZM15.0082 8.56592C14.6024 8.31027 14.1917 8.06284 13.776 7.8236C13.3669 7.58812 12.9528 7.36148 12.5339 7.14368C13.2512 6.84207 13.9563 6.58447 14.6371 6.37456C14.7975 7.09831 14.9214 7.82969 15.0082 8.56592ZM8.50208 4.63935C9.27171 2.40008 10.4105 1.03388 11.2886 1.03351C12.2238 1.03306 13.4388 2.50721 14.2333 4.9016C14.2849 5.05769 14.3337 5.21465 14.3797 5.3725C13.3359 5.69625 12.3146 6.08872 11.3227 6.54734C10.3348 6.08332 9.31678 5.68648 8.2755 5.35951C8.3451 5.11764 8.42063 4.87759 8.50208 4.63935ZM8.01777 6.36168C8.72782 6.58521 9.42615 6.84441 10.1101 7.13829C9.26265 7.57562 8.43711 8.05199 7.63347 8.5674C7.73055 7.79562 7.85975 7.05619 8.01777 6.36168ZM7.63523 15.6286C8.036 15.8852 8.44262 16.1322 8.8551 16.3698C9.27586 16.6121 9.70222 16.8441 10.1342 17.066C9.445 17.3701 8.74066 17.6386 8.02396 17.8704C7.86411 17.1662 7.73351 16.4138 7.63523 15.6286ZM14.2348 19.4336C13.913 20.4584 13.4053 21.4152 12.7372 22.2561C12.572 22.497 12.3592 22.7016 12.1119 22.857C11.8647 23.0124 11.5882 23.1155 11.2995 23.1598C10.4186 23.1603 9.29426 21.8473 8.52943 19.6573C8.43936 19.3983 8.3565 19.137 8.28083 18.8734C9.32709 18.5359 10.3493 18.1278 11.3403 17.652C12.3405 18.1136 13.3698 18.509 14.4218 18.8357C14.3643 19.0364 14.302 19.2358 14.2348 19.4336ZM14.673 17.8318C13.9845 17.6189 13.2691 17.3569 12.5414 17.0509C12.9516 16.835 13.3648 16.607 13.781 16.3669C14.208 16.1203 14.6242 15.8675 15.0295 15.6086C14.9488 16.3553 14.8298 17.0973 14.673 17.8318ZM15.2129 12.0947C15.2138 12.8293 15.1909 13.5634 15.1441 14.2968C14.5481 14.7002 13.9189 15.094 13.2643 15.4719C12.6123 15.8483 11.9664 16.1942 11.3327 16.5073C10.6659 16.1877 10.012 15.8434 9.37092 15.4742C8.73345 15.1073 8.11059 14.7166 7.50236 14.302C7.44676 13.5688 7.41876 12.8343 7.41834 12.0984C7.41783 11.363 7.44537 10.6286 7.50067 9.89476C8.09649 9.48786 8.72112 9.09434 9.36693 8.72148C10.0157 8.34686 10.6697 8.00243 11.3202 7.69026C11.9788 8.01032 12.6255 8.35333 13.2603 8.71927C13.8973 9.0854 14.5219 9.47196 15.1341 9.87896C15.1866 10.6164 15.2129 11.355 15.2129 12.0947ZM16.3702 5.93401C18.6944 5.48193 20.4468 5.78604 20.8858 6.54637C21.3535 7.35639 20.6832 9.14535 19.0062 11.0299C18.9135 11.1338 18.8173 11.2383 18.7177 11.3431C17.9006 10.6045 17.0341 9.9223 16.1242 9.30136C16.0324 8.2235 15.8686 7.153 15.6338 6.09702C15.884 6.03545 16.1295 5.98111 16.3702 5.93401ZM16.2131 10.6332C16.8268 11.0813 17.4169 11.5609 17.9809 12.0701C17.4194 12.5877 16.8312 13.0756 16.2187 13.5318C16.2375 13.0528 16.2467 12.5736 16.2464 12.0942C16.2462 11.6071 16.2351 11.1201 16.2131 10.6332ZM20.8923 17.6357C20.4526 18.3992 18.7537 18.7176 16.4743 18.2864C16.213 18.237 15.945 18.1783 15.6701 18.1103C15.8993 17.0407 16.0559 15.9569 16.1388 14.8662C17.0471 14.2344 17.9109 13.5409 18.724 12.7905C18.8663 12.9384 19.0016 13.0855 19.13 13.2319C19.8571 14.0225 20.4325 14.9401 20.8273 15.939C20.9535 16.2023 21.0245 16.4888 21.0356 16.7806C21.0468 17.0725 20.998 17.3635 20.8923 17.6357Z" fill="white"/>
</svg>
