<svg width="28" height="17" viewBox="0 0 28 17" fill="none" xmlns="http://www.w3.org/2000/svg">
<path d="M22.8758 4.75657C21.8698 4.41008 20.9818 3.78709 20.3137 2.95903C19.5773 2.03642 18.6396 1.29447 17.5724 0.789938C16.5052 0.285402 15.3368 0.031647 14.1564 0.0480857C12.5686 -0.0643606 10.9967 0.425361 9.75379 1.41973C8.51084 2.41409 7.68801 3.84014 7.44918 5.41388C7.91959 4.62678 8.62758 4.0092 9.47127 3.65003C10.315 3.29086 11.2508 3.20861 12.1442 3.41512C13.1486 3.77169 14.0351 4.39831 14.7064 5.22607C15.4468 6.14131 16.3863 6.87559 17.4533 7.37305C18.5202 7.8705 19.6866 8.11802 20.8637 8.09677C22.4514 8.20922 24.0233 7.7195 25.2663 6.72513C26.5092 5.73077 27.3321 4.30472 27.5709 2.73098C27.109 3.5275 26.4033 4.1544 25.5579 4.51913C24.7125 4.88387 23.7722 4.96711 22.8758 4.75657ZM5.437 11.437C6.44302 11.7835 7.33102 12.4065 7.99917 13.2345C8.73556 14.1571 9.67322 14.8991 10.7404 15.4036C11.8076 15.9081 12.9761 16.1619 14.1564 16.1455C15.7442 16.2579 17.3161 15.7682 18.559 14.7738C19.802 13.7795 20.6248 12.3534 20.8637 10.7797C20.3932 11.5668 19.6853 12.1843 18.8416 12.5435C17.9979 12.9027 17.062 12.9849 16.1686 12.7784C15.1643 12.4219 14.2777 11.7952 13.6064 10.9675C12.864 10.0545 11.9242 9.32183 10.8577 8.82459C9.79116 8.32735 8.62576 8.0785 7.44918 8.09677C5.86139 7.98433 4.28951 8.47405 3.04655 9.46841C1.8036 10.4628 0.98077 11.8888 0.741936 13.4626C1.20381 12.666 1.90954 12.0391 2.75496 11.6744C3.60037 11.3097 4.54066 11.2264 5.437 11.437Z" fill="white"/>
</svg>
